<?xml version="1.0" encoding="UTF-8"?>
<svg version="1.1" xmlns="http://www.w3.org/2000/svg" width="512" height="512">
<path d="M0 0 C11.11003003 8.0964595 19.7901564 19.15666238 22.1015625 33.05078125 C23.43404793 47.33798616 19.76083234 59.03428377 14.125 72.0625 C12.536875 75.775 10.94875 79.4875 9.3125 83.3125 C20.2025 83.3125 31.0925 83.3125 42.3125 83.3125 C42.9725 81.0025 43.6325 78.6925 44.3125 76.3125 C46.00227804 73.38285387 48.12546653 70.88697996 50.3125 68.3125 C50.79332031 67.71308594 51.27414063 67.11367187 51.76953125 66.49609375 C57.43262249 60.08748164 66.87047723 54.97431013 75.3125 53.3125 C77.16734469 53.21620673 79.02525859 53.17338761 80.88258362 53.16532898 C82.01651047 53.15817368 83.15043732 53.15101837 84.31872559 53.14364624 C85.55876343 53.14095734 86.79880127 53.13826843 88.07641602 53.13549805 C89.3858165 53.12892685 90.69521698 53.12235565 92.04429626 53.11558533 C96.38498721 53.09458098 100.72567834 53.08418338 105.06640625 53.07421875 C106.56441707 53.07016924 108.06242771 53.06605226 109.56043816 53.06186867 C116.60252529 53.04282156 123.64460201 53.02859195 130.68670994 53.0202567 C138.79556598 53.01049872 146.904148 52.9842151 155.01290756 52.94375581 C161.29251596 52.91350704 167.57204621 52.89877939 173.851726 52.89547569 C177.59630281 52.89313434 181.34058675 52.88429488 185.08508492 52.85901451 C188.613829 52.83557591 192.14209069 52.83156299 195.67089272 52.84177589 C197.56649563 52.84250014 199.4620749 52.8235185 201.35757446 52.80371094 C215.08586769 52.88634039 225.57312918 57.80132631 235.5625 67.0625 C239.54282073 71.18611228 244.3125 77.32362187 244.3125 83.3125 C255.2025 83.3125 266.0925 83.3125 277.3125 83.3125 C274.16656422 75.95031041 274.16656422 75.95031041 271.00073242 68.59667969 C264.57995507 53.37994355 261.75115438 39.27483553 267.3125 23.3125 C272.34774217 10.98129469 281.37963049 2.02434672 293.390625 -3.56640625 C305.58541815 -8.24542448 320.51977752 -8.88388181 332.78125 -3.94140625 C347.05041636 3.12711597 355.92793244 13.90260789 361.1875 28.7890625 C365.88495263 46.73072183 358.02103855 63.07561204 350.97827148 79.14355469 C349.99677596 81.39225262 349.03450505 83.64843089 348.07421875 85.90625 C347.76707443 86.5916687 347.45993011 87.2770874 347.14347839 87.98327637 C345.51674153 91.7225962 345.51674153 91.7225962 346.04077148 95.63842773 C346.6702771 96.46709351 346.6702771 96.46709351 347.3125 97.3125 C347.83585937 98.03566406 348.35921875 98.75882812 348.8984375 99.50390625 C349.48882812 100.28636719 350.07921875 101.06882812 350.6875 101.875 C358.5834579 113.26561985 359.86913257 124.72146799 358.3125 138.3125 C355.6920414 149.77990513 348.95218607 159.57064065 339.3125 166.3125 C337.58604073 167.23570486 335.84141572 168.12557636 334.08203125 168.984375 C333.18718018 169.42362305 332.2923291 169.86287109 331.37036133 170.31542969 C330.69126709 170.64446289 330.01217285 170.97349609 329.3125 171.3125 C329.3031543 172.28074707 329.29380859 173.24899414 329.28417969 174.24658203 C329.24413217 177.85885647 329.17833446 181.47029235 329.10498047 185.08203125 C329.07685587 186.6414915 329.05559911 188.20109204 329.04150391 189.76074219 C329.01995458 192.01049173 328.97324943 194.25856974 328.921875 196.5078125 C328.92064636 197.1986795 328.91941772 197.88954651 328.91815186 198.60134888 C328.76904202 203.59393923 327.41668452 206.44779925 324.3125 210.3125 C319.08990143 214.36880398 313.65909858 214.08647544 307.3125 213.3125 C302.71577129 211.13510219 300.51444743 208.84193931 298.3125 204.3125 C297.97192383 200.89916992 297.97192383 200.89916992 298.01953125 197.04296875 C298.02702393 195.79668701 298.0345166 194.55040527 298.04223633 193.26635742 C298.06954834 191.69345947 298.09686035 190.12056152 298.125 188.5 C298.186875 183.488125 298.24875 178.47625 298.3125 173.3125 C280.4925 173.3125 262.6725 173.3125 244.3125 173.3125 C243.6525 175.6225 242.9925 177.9325 242.3125 180.3125 C240.62272196 183.24214613 238.49953347 185.73802004 236.3125 188.3125 C235.59126953 189.21162109 235.59126953 189.21162109 234.85546875 190.12890625 C228.96370387 196.79629588 219.86841551 201.17352112 211.3125 203.3125 C203.7225 203.3125 196.1325 203.3125 188.3125 203.3125 C188.3125 293.0725 188.3125 382.8325 188.3125 475.3125 C208.1125 475.3125 227.9125 475.3125 248.3125 475.3125 C247.60452795 459.00222235 247.60452795 459.00222235 245.8125 442.875 C245.64943359 441.77502686 245.48636719 440.67505371 245.31835938 439.54174805 C243.57302171 428.61764362 240.9071982 417.94744272 238.20898438 407.22717285 C233.2060726 387.3489503 229.19576233 367.38612405 229.13549805 346.81738281 C229.12892685 345.82094254 229.12235565 344.82450226 229.11558533 343.79786682 C229.0960502 340.53711857 229.0842415 337.27641566 229.07421875 334.015625 C229.07014322 332.89593071 229.0660677 331.77623642 229.06186867 330.622612 C229.041104 324.70885915 229.02675461 318.79512893 229.01733398 312.88134766 C229.00621993 306.77932385 228.97173531 300.67765969 228.93216228 294.5757637 C228.90604524 289.87287715 228.89764708 285.17007763 228.89405251 280.46712494 C228.88918296 278.21686084 228.87755857 275.96660073 228.85901451 273.71640778 C228.83470245 270.5739897 228.83557248 267.43252212 228.8425293 264.29003906 C228.82331421 262.90127312 228.82331421 262.90127312 228.80371094 261.48445129 C228.84837751 255.94952102 229.48318998 252.61273528 233.3125 248.3125 C237.18217286 245.49501535 239.8912605 244.93523803 244.64390564 244.92481995 C246.55963631 244.909963 246.55963631 244.909963 248.5140686 244.89480591 C249.92205907 244.89904369 251.3300486 244.90360152 252.73803711 244.90844727 C254.22656263 244.9027426 255.71508377 244.89577797 257.20359802 244.88764954 C261.24082927 244.86971334 265.27784322 244.87088735 269.31510234 244.87659192 C272.68739402 244.87968317 276.05964392 244.87359203 279.43192965 244.86755317 C287.38849303 244.85350801 295.34494904 244.85506911 303.30151367 244.86645508 C311.50578368 244.87793619 319.70972679 244.86386086 327.91395372 244.8370586 C334.96209639 244.81489652 342.01013649 244.80826536 349.05831152 244.81413502 C353.26600921 244.81750461 357.47349736 244.81508946 361.6811657 244.79788399 C365.63837861 244.78240874 369.59510757 244.78637643 373.55230141 244.80518913 C375.0026986 244.80887347 376.45313169 244.80577097 377.90349579 244.79530334 C379.88699721 244.78208336 381.87062379 244.79605527 383.85411072 244.81129456 C384.96298614 244.81150384 386.07186155 244.81171312 387.21433926 244.81192875 C391.92183064 245.57252029 395.08249208 247.88533993 398.16323853 251.45988464 C399.84455272 255.63312354 399.73052998 259.49438974 399.70068359 263.9543457 C399.70594055 264.92114258 399.71119751 265.88793945 399.71661377 266.8840332 C399.72982766 270.08561326 399.72105744 273.28669592 399.7109375 276.48828125 C399.71296094 278.73292638 399.71587463 280.97757086 399.71963501 283.22221375 C399.72406284 287.94076764 399.71762393 292.65915143 399.70361328 297.37768555 C399.68670813 303.35586902 399.6962396 309.3336428 399.71433067 315.31181049 C399.72531717 319.95970076 399.72165202 324.60749858 399.7139473 329.25539207 C399.71197618 331.4544702 399.7142929 333.65355733 399.72138596 335.85262489 C399.77082606 355.52654965 398.34446476 375.05933871 393.5 394.1875 C393.11751099 395.78029785 393.11751099 395.78029785 392.72729492 397.40527344 C391.93354204 400.71051192 391.12428097 404.01164813 390.3125 407.3125 C384.77280041 429.99793647 381.04732041 451.95027873 380.3125 475.3125 C381.33549194 475.28313354 381.33549194 475.28313354 382.37915039 475.25317383 C383.27625732 475.23794678 384.17336426 475.22271973 385.09765625 475.20703125 C386.43002319 475.17766479 386.43002319 475.17766479 387.78930664 475.14770508 C391.55951302 475.39394497 393.5486195 476.81826638 396.3125 479.3125 C400.2117458 484.74159343 400.10189763 489.83943941 399.3125 496.3125 C397.13745098 500.90427016 394.85727327 503.14460772 390.3125 505.3125 C387.46609351 505.59641435 384.84255925 505.71745185 381.99903965 505.69281673 C381.16101141 505.69747665 380.32298316 505.70213657 379.45956013 505.7069377 C376.63869957 505.71893165 373.81831675 505.70947532 370.99745178 505.70018005 C368.95975829 505.70435104 366.92206712 505.70982726 364.88438028 505.71649987 C359.27483723 505.73100399 353.66544048 505.72669425 348.05588925 505.71933305 C342.01012027 505.71461596 335.96438361 505.72709826 329.91862488 505.73735046 C318.7559428 505.7535763 307.59330625 505.75597784 296.43061861 505.75104547 C286.11835093 505.74649103 275.80610066 505.74708406 265.49383354 505.75288582 C264.11139045 505.75364268 262.72894735 505.75439866 261.34650425 505.75515376 C259.26337306 505.75629894 257.18024188 505.75744881 255.0971107 505.75861301 C235.72604264 505.76932052 216.3549804 505.77404066 196.98391056 505.76614285 C196.25345898 505.76584567 195.5230074 505.7655485 194.77042093 505.76524232 C188.83836445 505.7627933 182.90630805 505.76018176 176.97425165 505.75755819 C153.83282315 505.74745486 130.69146721 505.75581176 107.55004883 505.77905273 C81.55867556 505.8051136 55.56734597 505.81797643 29.57595915 505.81086498 C26.80563351 505.81014891 24.03530787 505.80947452 21.26498222 505.80882454 C20.58284293 505.80865473 19.90070363 505.80848492 19.19789344 505.80830997 C8.89219241 505.80600514 -1.41346813 505.81399269 -11.71916008 505.82711601 C-23.43677658 505.84201055 -35.15431433 505.84251752 -46.87193459 505.8250451 C-52.85338833 505.81650508 -58.8346604 505.81445864 -64.81610489 505.82969666 C-70.28803941 505.84346441 -75.75963527 505.83888298 -81.23154981 505.81945742 C-83.21466928 505.81567269 -85.19781537 505.81868987 -87.1809113 505.82906907 C-89.87041923 505.84214828 -92.5587425 505.83073704 -95.24819851 505.81307125 C-96.02355384 505.82272176 -96.79890917 505.83237227 -97.59776011 505.84231523 C-102.77045926 505.77224211 -105.70037879 504.57457184 -109.6875 501.3125 C-113.74380398 496.08990143 -113.46147544 490.65909858 -112.6875 484.3125 C-110.5776567 479.85838636 -108.30560742 477.11958551 -103.6875 475.3125 C-101.96248636 475.23571898 -100.2343504 475.21700299 -98.5078125 475.2421875 C-97.60562988 475.25233887 -96.70344727 475.26249023 -95.77392578 475.27294922 C-95.08540527 475.28600098 -94.39688477 475.29905273 -93.6875 475.3125 C-94.21923201 451.99605146 -98.11585908 429.77512996 -103.79101562 407.22717285 C-108.7939274 387.3489503 -112.80423767 367.38612405 -112.86450195 346.81738281 C-112.87107315 345.82094254 -112.87764435 344.82450226 -112.88441467 343.79786682 C-112.9039498 340.53711857 -112.9157585 337.27641566 -112.92578125 334.015625 C-112.92985678 332.89593071 -112.9339323 331.77623642 -112.93813133 330.622612 C-112.958896 324.70885915 -112.97324539 318.79512893 -112.98266602 312.88134766 C-112.99378007 306.77932385 -113.02826469 300.67765969 -113.06783772 294.5757637 C-113.09395476 289.87287715 -113.10235292 285.17007763 -113.10594749 280.46712494 C-113.11081704 278.21686084 -113.12244143 275.96660073 -113.14098549 273.71640778 C-113.16529755 270.5739897 -113.16442752 267.43252212 -113.1574707 264.29003906 C-113.17028076 263.3641951 -113.18309082 262.43835114 -113.19628906 261.48445129 C-113.15162249 255.94952102 -112.51681002 252.61273528 -108.6875 248.3125 C-104.81782714 245.49501535 -102.1087395 244.93523803 -97.35609436 244.92481995 C-95.44036369 244.909963 -95.44036369 244.909963 -93.4859314 244.89480591 C-92.07794093 244.89904369 -90.6699514 244.90360152 -89.26196289 244.90844727 C-87.77343737 244.9027426 -86.28491623 244.89577797 -84.79640198 244.88764954 C-80.75917073 244.86971334 -76.72215678 244.87088735 -72.68489766 244.87659192 C-69.31260598 244.87968317 -65.94035608 244.87359203 -62.56807035 244.86755317 C-54.61150697 244.85350801 -46.65505096 244.85506911 -38.69848633 244.86645508 C-30.49421632 244.87793619 -22.29027321 244.86386086 -14.08604628 244.8370586 C-7.03790361 244.81489652 0.01013649 244.80826536 7.05831152 244.81413502 C11.26600921 244.81750461 15.47349736 244.81508946 19.6811657 244.79788399 C23.63837861 244.78240874 27.59510757 244.78637643 31.55230141 244.80518913 C33.0026986 244.80887347 34.45313169 244.80577097 35.90349579 244.79530334 C37.88699721 244.78208336 39.87062379 244.79605527 41.85411072 244.81129456 C42.96298614 244.81150384 44.07186155 244.81171312 45.21433926 244.81192875 C49.92183064 245.57252029 53.08249208 247.88533993 56.16323853 251.45988464 C57.84455272 255.63312354 57.73052998 259.49438974 57.70068359 263.9543457 C57.70856903 265.40454102 57.70856903 265.40454102 57.71661377 266.8840332 C57.72982766 270.08561326 57.72105744 273.28669592 57.7109375 276.48828125 C57.71296094 278.73292638 57.71587463 280.97757086 57.71963501 283.22221375 C57.72406284 287.94076764 57.71762393 292.65915143 57.70361328 297.37768555 C57.68670813 303.35586902 57.6962396 309.3336428 57.71433067 315.31181049 C57.72531717 319.95970076 57.72165202 324.60749858 57.7139473 329.25539207 C57.71197618 331.4544702 57.7142929 333.65355733 57.72138596 335.85262489 C57.77082606 355.52654965 56.34446476 375.05933871 51.5 394.1875 C51.24500732 395.24936523 50.99001465 396.31123047 50.72729492 397.40527344 C49.93354204 400.71051192 49.12428097 404.01164813 48.3125 407.3125 C43.77841231 425.87390236 43.77841231 425.87390236 40.5 444.6875 C40.38825439 445.46899414 40.27650879 446.25048828 40.16137695 447.05566406 C38.96524025 456.46056337 38.78824133 465.79767341 38.3125 475.3125 C58.1125 475.3125 77.9125 475.3125 98.3125 475.3125 C98.3125 385.5525 98.3125 295.7925 98.3125 203.3125 C90.7225 203.3125 83.1325 203.3125 75.3125 203.3125 C68.10945935 201.47643081 68.10945935 201.47643081 64.3125 199.3125 C63.53261719 198.87679687 62.75273437 198.44109375 61.94921875 197.9921875 C52.82431405 192.37922091 46.20214309 185.37321147 42.3125 175.3125 C42.3125 174.6525 42.3125 173.9925 42.3125 173.3125 C24.4925 173.3125 6.6725 173.3125 -11.6875 173.3125 C-11.52968783 183.24482997 -11.52968783 183.24482997 -11.32714844 193.17626953 C-11.3171582 194.42005371 -11.30716797 195.66383789 -11.296875 196.9453125 C-11.2654541 198.84627686 -11.2654541 198.84627686 -11.23339844 200.78564453 C-11.88954183 205.88169155 -14.03952661 209.03254694 -18.06640625 212.16015625 C-22.81579103 214.24818681 -27.60998151 213.93170957 -32.6875 213.3125 C-37.2884998 211.13307904 -39.48381436 208.84426974 -41.6875 204.3125 C-42.00515167 201.66994662 -42.17495876 199.24801041 -42.19921875 196.60546875 C-42.22614555 195.51737663 -42.22614555 195.51737663 -42.25361633 194.40730286 C-42.30752217 192.10492658 -42.34155001 189.80275521 -42.375 187.5 C-42.40819068 185.93291432 -42.44268196 184.3658556 -42.47851562 182.79882812 C-42.56323659 178.97020043 -42.63014067 175.1416314 -42.6875 171.3125 C-43.3484668 171.00014404 -44.00943359 170.68778809 -44.69042969 170.3659668 C-57.0881636 164.36556338 -65.50693118 156.15754087 -70.31640625 143.109375 C-71.8831277 138.22907553 -72.22675703 133.66541749 -72.1875 128.5625 C-72.18177979 127.69069092 -72.17605957 126.81888184 -72.17016602 125.9206543 C-71.86881429 114.93501408 -68.34069363 106.41291875 -61.140625 98.1171875 C-59.47907452 96.26833751 -59.47907452 96.26833751 -58.6875 93.3125 C-59.55165377 90.79755726 -60.48435491 88.43369544 -61.546875 86.00390625 C-62.00444183 84.92096535 -62.00444183 84.92096535 -62.47125244 83.81614685 C-63.45097505 81.49846931 -64.44278969 79.18628113 -65.4375 76.875 C-73.13896073 58.96777072 -79.45400561 42.73392067 -72.6875 23.3125 C-67.65225783 10.98129469 -58.62036951 2.02434672 -46.609375 -3.56640625 C-31.40539511 -9.40001885 -13.97655869 -8.5917544 0 0 Z M-40.9375 30.75 C-44.36329505 35.76634275 -45.02796053 39.15261608 -44.37182617 45.1184082 C-42.85803722 52.18401678 -39.59889617 58.73052266 -36.6875 65.3125 C-36.0247757 66.83929487 -35.36330678 68.36663529 -34.703125 69.89453125 C-31.81692081 76.6598162 -31.81692081 76.6598162 -28.6875 83.3125 C-27.3675 83.3125 -26.0475 83.3125 -24.6875 83.3125 C-21.3014482 75.66826199 -17.96948107 68.00200122 -14.6875 60.3125 C-14.15358643 59.06774902 -14.15358643 59.06774902 -13.60888672 57.79785156 C-8.65229306 46.86911609 -8.65229306 46.86911609 -9.6875 35.3125 C-12.30123506 30.36507292 -15.65237614 26.83006193 -20.6875 24.3125 C-29.47695506 23.50987012 -34.7635224 24.06152427 -40.9375 30.75 Z M299.0625 30.75 C295.63670495 35.76634275 294.97203947 39.15261608 295.62817383 45.1184082 C297.14196278 52.18401678 300.40110383 58.73052266 303.3125 65.3125 C303.9752243 66.83929487 304.63669322 68.36663529 305.296875 69.89453125 C308.18307919 76.6598162 308.18307919 76.6598162 311.3125 83.3125 C312.6325 83.3125 313.9525 83.3125 315.3125 83.3125 C318.6985518 75.66826199 322.03051893 68.00200122 325.3125 60.3125 C325.84641357 59.06774902 325.84641357 59.06774902 326.39111328 57.79785156 C331.34770694 46.86911609 331.34770694 46.86911609 330.3125 35.3125 C327.69876494 30.36507292 324.34762386 26.83006193 319.3125 24.3125 C310.52304494 23.50987012 305.2364776 24.06152427 299.0625 30.75 Z M73.5625 88.625 C70.46780275 92.82191819 69.21697084 98.04457986 67.71875 102.97265625 C65.92611814 107.23015692 63.49027052 110.22361474 59.3125 112.3125 C57.92432327 112.42976659 56.53101286 112.48931406 55.13818359 112.51782227 C53.84707169 112.5477401 53.84707169 112.5477401 52.52987671 112.57826233 C51.59962677 112.59497482 50.66937683 112.61168732 49.7109375 112.62890625 C48.28353745 112.6600779 48.28353745 112.6600779 46.82730103 112.69187927 C43.78077568 112.75738133 40.73416257 112.8162628 37.6875 112.875 C35.62499084 112.91818459 33.56249063 112.96179886 31.5 113.00585938 C26.43759046 113.1130634 21.37509245 113.21432902 16.3125 113.3125 C16.47476074 114.04082031 16.63702148 114.76914063 16.80419922 115.51953125 C17.27188614 118.08933833 17.44154483 120.39492472 17.4453125 123 C17.44660156 123.86367187 17.44789063 124.72734375 17.44921875 125.6171875 C17.44535156 126.50664062 17.44148437 127.39609375 17.4375 128.3125 C17.44136719 129.20195312 17.44523438 130.09140625 17.44921875 131.0078125 C17.44792969 131.87148437 17.44664062 132.73515625 17.4453125 133.625 C17.44418457 134.40488281 17.44305664 135.18476563 17.44189453 135.98828125 C17.30178312 138.50499935 16.86002926 140.85487114 16.3125 143.3125 C17.58891357 143.32708252 18.86532715 143.34166504 20.18041992 143.35668945 C24.92370379 143.4147354 29.66651607 143.49196828 34.40942383 143.57495117 C36.46077816 143.60817083 38.51222325 143.63621197 40.5637207 143.65893555 C43.51552949 143.6925357 46.46650886 143.74485476 49.41796875 143.80078125 C50.33273483 143.80717117 51.24750092 143.8135611 52.18998718 143.82014465 C57.03216786 143.93152787 60.38402054 144.15942989 64.3125 147.3125 C65.53515625 148.96875 65.53515625 148.96875 66.375 150.8125 C66.69855469 151.50988281 67.02210938 152.20726562 67.35546875 152.92578125 C68.4212201 155.58363462 69.29528798 158.27930409 70.1875 161 C72.02811867 166.17092093 73.61306403 168.4559801 78.3125 171.3125 C84.42380735 173.56661047 90.14418997 173.60248798 96.61279297 173.5871582 C97.73077271 173.59226913 98.84875244 173.59738007 100.00061035 173.60264587 C103.68535765 173.61651196 107.36991726 173.61558727 111.0546875 173.61328125 C113.62387155 173.61716987 116.19305497 173.62150489 118.76223755 173.62626648 C124.14376178 173.63372234 129.52521368 173.63358096 134.90673828 173.62817383 C141.10919238 173.62213724 147.31141945 173.63444218 153.51383483 173.6557439 C159.50193728 173.67554619 165.48992162 173.67852626 171.47806168 173.67500877 C174.01609963 173.67552112 176.55414128 173.68074263 179.09215927 173.69082069 C182.64608843 173.70320098 186.19949672 173.69638321 189.75341797 173.68481445 C190.79474884 173.69245819 191.83607971 173.70010193 192.90896606 173.70797729 C200.3717126 173.65447003 207.19685144 172.9324772 213.0625 168 C216.15719725 163.80308181 217.40802916 158.58042014 218.90625 153.65234375 C220.69888186 149.39484308 223.13472948 146.40138526 227.3125 144.3125 C228.70067673 144.19523341 230.09398714 144.13568594 231.48681641 144.10717773 C232.77792831 144.0772599 232.77792831 144.0772599 234.09512329 144.04673767 C235.4904982 144.02166893 235.4904982 144.02166893 236.9140625 143.99609375 C237.86566254 143.97531265 238.81726257 143.95453156 239.79769897 143.93312073 C242.84422432 143.86761867 245.89083743 143.8087372 248.9375 143.75 C251.00000916 143.70681541 253.06250937 143.66320114 255.125 143.61914062 C260.18740954 143.5119366 265.24990755 143.41067098 270.3125 143.3125 C270.15023926 142.58417969 269.98797852 141.85585937 269.82080078 141.10546875 C269.35311386 138.53566167 269.18345517 136.23007528 269.1796875 133.625 C269.17839844 132.76132813 269.17710937 131.89765625 269.17578125 131.0078125 C269.17964844 130.11835938 269.18351563 129.22890625 269.1875 128.3125 C269.18363281 127.42304688 269.17976562 126.53359375 269.17578125 125.6171875 C269.17771484 124.32167969 269.17771484 124.32167969 269.1796875 123 C269.18081543 122.22011719 269.18194336 121.44023437 269.18310547 120.63671875 C269.32321688 118.12000065 269.76497074 115.77012886 270.3125 113.3125 C269.03608643 113.29791748 267.75967285 113.28333496 266.44458008 113.26831055 C261.70129621 113.2102646 256.95848393 113.13303172 252.21557617 113.05004883 C250.16422184 113.01682917 248.11277675 112.98878803 246.0612793 112.96606445 C243.10947051 112.9324643 240.15849114 112.88014524 237.20703125 112.82421875 C236.29226517 112.81782883 235.37749908 112.8114389 234.43501282 112.80485535 C229.59283214 112.69347213 226.24097946 112.46557011 222.3125 109.3125 C221.08984375 107.65625 221.08984375 107.65625 220.25 105.8125 C219.92644531 105.11511719 219.60289062 104.41773437 219.26953125 103.69921875 C218.2037799 101.04136538 217.32971202 98.34569591 216.4375 95.625 C214.59688133 90.45407907 213.01193597 88.1690199 208.3125 85.3125 C202.20119265 83.05838953 196.48081003 83.02251202 190.01220703 83.0378418 C188.89422729 83.03273087 187.77624756 83.02761993 186.62438965 83.02235413 C182.93964235 83.00848804 179.25508274 83.00941273 175.5703125 83.01171875 C173.00112845 83.00783013 170.43194503 83.00349511 167.86276245 82.99873352 C162.48123822 82.99127766 157.09978632 82.99141904 151.71826172 82.99682617 C145.51580762 83.00286276 139.31358055 82.99055782 133.11116517 82.9692561 C127.12306272 82.94945381 121.13507838 82.94647374 115.14693832 82.94999123 C112.60890037 82.94947888 110.07085872 82.94425737 107.53284073 82.93417931 C103.97891157 82.92179902 100.42550328 82.92861679 96.87158203 82.94018555 C95.30958572 82.92871994 95.30958572 82.92871994 93.71603394 82.91702271 C86.2532874 82.97052997 79.42814856 83.6925228 73.5625 88.625 Z M-39.5625 120.4375 C-41.25234251 124.75598642 -41.34710983 128.7392052 -40.6875 133.3125 C-38.52451163 137.71858743 -36.29069521 140.5112497 -31.6875 142.3125 C-26.64424616 142.99676057 -22.85673116 142.8864862 -18.25 140.625 C-14.89093988 137.59365306 -12.99394369 135.57110352 -12.37109375 130.98046875 C-12.10536348 125.26298191 -12.71902848 121.70999547 -16.6875 117.3125 C-20.52463196 113.92679533 -24.32151462 113.79958828 -29.25 113.9609375 C-33.91276146 114.63345117 -36.53940292 117.01132331 -39.5625 120.4375 Z M300.4375 120.4375 C298.74765749 124.75598642 298.65289017 128.7392052 299.3125 133.3125 C301.47548837 137.71858743 303.70930479 140.5112497 308.3125 142.3125 C313.35575384 142.99676057 317.14326884 142.8864862 321.75 140.625 C325.10906012 137.59365306 327.00605631 135.57110352 327.62890625 130.98046875 C327.89463652 125.26298191 327.28097152 121.70999547 323.3125 117.3125 C319.47536804 113.92679533 315.67848538 113.79958828 310.75 113.9609375 C306.08723854 114.63345117 303.46059708 117.01132331 300.4375 120.4375 Z M128.3125 203.3125 C128.3125 293.0725 128.3125 382.8325 128.3125 475.3125 C138.2125 475.3125 148.1125 475.3125 158.3125 475.3125 C158.3125 385.5525 158.3125 295.7925 158.3125 203.3125 C148.4125 203.3125 138.5125 203.3125 128.3125 203.3125 Z M-82.6875 275.3125 C-82.6875 289.5025 -82.6875 303.6925 -82.6875 318.3125 C-46.3875 318.3125 -10.0875 318.3125 27.3125 318.3125 C27.3125 304.1225 27.3125 289.9325 27.3125 275.3125 C-8.9875 275.3125 -45.2875 275.3125 -82.6875 275.3125 Z M259.3125 275.3125 C259.3125 289.5025 259.3125 303.6925 259.3125 318.3125 C295.6125 318.3125 331.9125 318.3125 369.3125 318.3125 C369.3125 304.1225 369.3125 289.9325 369.3125 275.3125 C333.0125 275.3125 296.7125 275.3125 259.3125 275.3125 Z M-81.6875 349.3125 C-80.87557767 362.12943739 -80.87557767 362.12943739 -79.125 374.75 C-78.8765332 376.17131226 -78.8765332 376.17131226 -78.62304688 377.62133789 C-76.90377441 386.96058654 -74.52792784 396.1221161 -72.15545654 405.31057739 C-66.14093198 428.67437176 -63.78911726 451.07692037 -62.6875 475.3125 C-39.5875 475.3125 -16.4875 475.3125 7.3125 475.3125 C7.6425 468.0525 7.9725 460.7925 8.3125 453.3125 C8.64347112 449.35989531 8.99028135 445.48516536 9.5 441.5625 C9.62528076 440.58265137 9.75056152 439.60280273 9.87963867 438.59326172 C11.52466076 426.65196984 14.43691394 415.00516584 17.3125 403.3125 C23.97420137 376.62729334 23.97420137 376.62729334 26.3125 349.3125 C-9.3275 349.3125 -44.9675 349.3125 -81.6875 349.3125 Z M260.3125 349.3125 C261.12442233 362.12943739 261.12442233 362.12943739 262.875 374.75 C263.1234668 376.17131226 263.1234668 376.17131226 263.37695312 377.62133789 C265.09622559 386.96058654 267.47207216 396.1221161 269.84454346 405.31057739 C275.85906802 428.67437176 278.21088274 451.07692037 279.3125 475.3125 C302.4125 475.3125 325.5125 475.3125 349.3125 475.3125 C349.6425 468.0525 349.9725 460.7925 350.3125 453.3125 C350.64347112 449.35989531 350.99028135 445.48516536 351.5 441.5625 C351.62528076 440.58265137 351.75056152 439.60280273 351.87963867 438.59326172 C353.52466076 426.65196984 356.43691394 415.00516584 359.3125 403.3125 C365.97420137 376.62729334 365.97420137 376.62729334 368.3125 349.3125 C332.6725 349.3125 297.0325 349.3125 260.3125 349.3125 Z " fill="#000000" transform="translate(112.6875,6.6875)"/>
</svg>
