<?xml version="1.0" encoding="UTF-8"?>
<svg xmlns="http://www.w3.org/2000/svg" xmlns:xlink="http://www.w3.org/1999/xlink" width="25px" height="px" viewBox="0 0 25 25" version="1.1">
<g id="surface1">
<path style=" stroke:none;fill-rule:nonzero;fill:rgb(0%,0%,0%);fill-opacity:1;" d="M 21.195312 5.625 L 4.855469 5.625 L 0 19.375 L 25 19.375 Z M 6.25 6.875 L 19.996094 6.875 L 22.414062 17.292969 L 2.78125 17.292969 Z M 6.25 6.875 "/>
<path style=" stroke:none;fill-rule:nonzero;fill:rgb(0%,0%,0%);fill-opacity:1;" d="M 19.949219 15.886719 C 19.703125 16.078125 19.464844 16.238281 19.015625 16.238281 C 18.5625 16.238281 18.339844 16.078125 18.089844 15.886719 C 17.820312 15.683594 17.515625 15.453125 16.929688 15.453125 C 16.347656 15.453125 16.042969 15.683594 15.773438 15.886719 C 15.527344 16.078125 15.308594 16.238281 14.859375 16.238281 C 14.410156 16.238281 14.191406 16.078125 13.945312 15.886719 C 13.679688 15.683594 13.375 15.453125 12.792969 15.453125 C 12.210938 15.453125 11.90625 15.683594 11.640625 15.886719 C 11.390625 16.078125 11.175781 16.238281 10.726562 16.238281 C 10.273438 16.238281 10.058594 16.078125 9.8125 15.886719 C 9.546875 15.683594 9.242188 15.453125 8.660156 15.453125 C 8.078125 15.453125 7.773438 15.683594 7.507812 15.886719 C 7.257812 16.078125 7.042969 16.238281 6.59375 16.238281 C 6.144531 16.238281 5.90625 16.078125 5.65625 15.886719 C 5.390625 15.683594 5.3125 15.453125 4.480469 15.453125 L 4.480469 15.847656 C 4.894531 15.847656 5.167969 16.011719 5.417969 16.199219 C 5.683594 16.402344 6 16.632812 6.582031 16.632812 C 7.164062 16.632812 7.472656 16.402344 7.738281 16.199219 C 7.988281 16.011719 8.207031 15.847656 8.65625 15.847656 C 9.105469 15.847656 9.324219 16.011719 9.570312 16.199219 C 9.839844 16.402344 10.140625 16.632812 10.726562 16.632812 C 11.308594 16.632812 11.609375 16.402344 11.878906 16.199219 C 12.125 16.011719 12.339844 15.847656 12.792969 15.847656 C 13.242188 15.847656 13.457031 16.011719 13.707031 16.199219 C 13.972656 16.402344 14.273438 16.632812 14.859375 16.632812 C 15.441406 16.632812 15.746094 16.402344 16.011719 16.199219 C 16.261719 16.011719 16.476562 15.847656 16.925781 15.847656 C 17.375 15.847656 17.589844 16.011719 17.839844 16.199219 C 18.109375 16.402344 18.410156 16.632812 18.992188 16.632812 C 19.578125 16.632812 19.921875 16.402344 20.1875 16.199219 C 20.4375 16.011719 20.730469 15.847656 21.144531 15.847656 L 21.144531 15.453125 C 20.3125 15.453125 20.21875 15.683594 19.949219 15.886719 Z M 19.949219 15.886719 "/>
<path style=" stroke:none;fill-rule:nonzero;fill:rgb(0%,0%,0%);fill-opacity:1;" d="M 7.226562 14.273438 C 7.769531 14.273438 8.050781 14.039062 8.296875 13.832031 C 8.519531 13.644531 8.714844 13.484375 9.117188 13.484375 C 9.515625 13.484375 9.710938 13.644531 9.933594 13.832031 C 10.179688 14.039062 10.460938 14.273438 11.003906 14.273438 C 11.546875 14.273438 11.828125 14.039062 12.074219 13.832031 C 12.296875 13.644531 12.492188 13.484375 12.890625 13.484375 C 13.292969 13.484375 13.484375 13.644531 13.707031 13.832031 C 13.957031 14.039062 14.234375 14.273438 14.777344 14.273438 C 15.320312 14.273438 15.601562 14.039062 15.847656 13.832031 C 16.074219 13.644531 16.265625 13.484375 16.667969 13.484375 C 17.070312 13.484375 17.261719 13.644531 17.488281 13.832031 C 17.734375 14.039062 18.015625 14.273438 18.558594 14.273438 C 19.101562 14.273438 19.316406 14.039062 19.5625 13.832031 C 19.785156 13.644531 19.894531 13.484375 20.3125 13.484375 L 20.3125 13.089844 C 19.894531 13.089844 19.554688 13.324219 19.308594 13.53125 C 19.085938 13.714844 18.96875 13.878906 18.566406 13.878906 C 18.164062 13.878906 17.96875 13.714844 17.742188 13.53125 C 17.496094 13.324219 17.214844 13.089844 16.667969 13.089844 C 16.125 13.089844 15.84375 13.324219 15.597656 13.53125 C 15.375 13.714844 15.179688 13.878906 14.777344 13.878906 C 14.378906 13.878906 14.183594 13.714844 13.960938 13.53125 C 13.714844 13.324219 13.433594 13.089844 12.890625 13.089844 C 12.347656 13.089844 12.066406 13.324219 11.820312 13.53125 C 11.597656 13.714844 11.402344 13.878906 11.003906 13.878906 C 10.601562 13.878906 10.410156 13.714844 10.183594 13.53125 C 9.9375 13.324219 9.65625 13.089844 9.113281 13.089844 C 8.570312 13.089844 8.289062 13.324219 8.042969 13.53125 C 7.820312 13.714844 7.621094 13.878906 7.222656 13.878906 C 6.820312 13.878906 6.621094 13.714844 6.398438 13.53125 C 6.148438 13.324219 5.730469 13.089844 5.3125 13.089844 L 5.3125 13.484375 C 5.730469 13.484375 5.921875 13.644531 6.144531 13.832031 C 6.390625 14.039062 6.683594 14.273438 7.226562 14.273438 Z M 7.226562 14.273438 "/>
<path style=" stroke:none;fill-rule:nonzero;fill:rgb(0%,0%,0%);fill-opacity:1;" d="M 7.710938 11.910156 C 8.214844 11.910156 8.46875 11.671875 8.695312 11.464844 C 8.902344 11.273438 9.066406 11.121094 9.417969 11.121094 C 9.765625 11.121094 9.929688 11.273438 10.136719 11.464844 C 10.363281 11.671875 10.621094 11.910156 11.125 11.910156 C 11.625 11.910156 11.882812 11.671875 12.109375 11.464844 C 12.316406 11.273438 12.480469 11.121094 12.828125 11.121094 C 13.179688 11.121094 13.34375 11.273438 13.546875 11.464844 C 13.773438 11.671875 14.03125 11.910156 14.535156 11.910156 C 15.039062 11.910156 15.296875 11.671875 15.523438 11.464844 C 15.730469 11.273438 15.894531 11.121094 16.242188 11.121094 C 16.59375 11.121094 16.757812 11.273438 16.964844 11.464844 C 17.191406 11.671875 17.449219 11.910156 17.953125 11.910156 C 18.457031 11.910156 18.621094 11.671875 18.847656 11.464844 C 19.054688 11.273438 19.480469 11.121094 19.480469 11.121094 L 19.480469 10.730469 C 19.0625 10.730469 18.808594 10.964844 18.582031 11.175781 C 18.375 11.367188 18.300781 11.515625 17.949219 11.515625 C 17.597656 11.515625 17.4375 11.367188 17.230469 11.175781 C 17.003906 10.964844 16.746094 10.730469 16.242188 10.730469 C 15.738281 10.730469 15.484375 10.964844 15.257812 11.175781 C 15.050781 11.367188 14.886719 11.515625 14.535156 11.515625 C 14.1875 11.515625 14.023438 11.367188 13.816406 11.175781 C 13.589844 10.964844 13.332031 10.730469 12.828125 10.730469 C 12.328125 10.730469 12.070312 10.964844 11.84375 11.175781 C 11.636719 11.367188 11.476562 11.515625 11.125 11.515625 C 10.777344 11.515625 10.613281 11.367188 10.40625 11.175781 C 10.179688 10.964844 9.925781 10.730469 9.421875 10.730469 C 8.917969 10.730469 8.667969 10.964844 8.441406 11.175781 C 8.234375 11.367188 8.085938 11.515625 7.734375 11.515625 C 7.386719 11.515625 7.269531 11.367188 7.0625 11.175781 C 6.835938 10.964844 6.5625 10.726562 6.144531 10.726562 L 6.144531 11.121094 C 6.5625 11.121094 6.589844 11.273438 6.792969 11.464844 C 7.019531 11.671875 7.207031 11.910156 7.710938 11.910156 Z M 7.710938 11.910156 "/>
<path style=" stroke:none;fill-rule:nonzero;fill:rgb(0%,0%,0%);fill-opacity:1;" d="M 7.214844 8.703125 C 7.414062 8.902344 7.695312 9.152344 8.167969 9.152344 C 8.636719 9.152344 8.878906 8.902344 9.078125 8.699219 C 9.261719 8.515625 9.402344 8.367188 9.710938 8.367188 C 10.015625 8.367188 10.160156 8.515625 10.347656 8.703125 C 10.546875 8.902344 10.792969 9.152344 11.261719 9.152344 C 11.734375 9.152344 11.980469 8.902344 12.179688 8.699219 C 12.363281 8.515625 12.511719 8.367188 12.816406 8.367188 C 13.125 8.367188 13.269531 8.515625 13.453125 8.703125 C 13.652344 8.902344 13.902344 9.152344 14.371094 9.152344 C 14.84375 9.152344 15.089844 8.902344 15.289062 8.699219 C 15.476562 8.515625 15.621094 8.367188 15.929688 8.367188 C 16.234375 8.367188 16.382812 8.515625 16.566406 8.703125 C 16.765625 8.902344 17.015625 9.152344 17.488281 9.152344 C 17.957031 9.152344 18.214844 8.902344 18.414062 8.703125 C 18.601562 8.515625 18.644531 8.367188 19.0625 8.367188 L 19.0625 7.972656 C 18.644531 7.972656 18.332031 8.222656 18.132812 8.425781 C 17.949219 8.613281 17.785156 8.761719 17.480469 8.761719 C 17.171875 8.761719 17.027344 8.613281 16.84375 8.425781 C 16.644531 8.222656 16.398438 7.972656 15.925781 7.972656 C 15.457031 7.972656 15.207031 8.222656 15.007812 8.425781 C 14.824219 8.613281 14.679688 8.761719 14.371094 8.761719 C 14.066406 8.761719 13.917969 8.613281 13.734375 8.425781 C 13.535156 8.222656 13.289062 7.972656 12.816406 7.972656 C 12.34375 7.972656 12.097656 8.222656 11.898438 8.425781 C 11.714844 8.613281 11.566406 8.761719 11.261719 8.761719 C 10.953125 8.761719 10.804688 8.613281 10.621094 8.425781 C 10.421875 8.222656 10.171875 7.972656 9.699219 7.972656 C 9.230469 7.972656 8.976562 8.222656 8.777344 8.425781 C 8.589844 8.613281 8.433594 8.761719 8.125 8.761719 C 7.820312 8.761719 7.683594 8.613281 7.496094 8.425781 C 7.296875 8.222656 6.980469 7.972656 6.5625 7.972656 L 6.5625 8.367188 C 6.980469 8.367188 7.03125 8.515625 7.214844 8.703125 Z M 7.214844 8.703125 "/>
</g>
</svg>
