<?xml version="1.0" encoding="iso-8859-1"?>
<!-- Uploaded to: SVG Repo, www.svgrepo.com, Generator: SVG Repo Mixer Tools -->
<svg fill="#000000" height="800px" width="800px" version="1.1" id="Layer_1" xmlns="http://www.w3.org/2000/svg" xmlns:xlink="http://www.w3.org/1999/xlink" 
	 viewBox="0 0 512.005 512.005" xml:space="preserve">
<g>
	<g>
		<path d="M509.205,209.598c-4.437-5.487-12.459-6.426-17.997-1.997l-124.493,99.601H64.004c-3.396,0-6.647,1.348-9.054,3.746
			l-51.2,51.2c-5.001,5.001-5.001,13.099,0,18.099c2.5,2.5,5.777,3.755,9.054,3.755s6.554-1.246,9.054-3.746l47.445-47.454h296.602
			l47.454,47.454c2.492,2.492,5.769,3.746,9.045,3.746s6.554-1.246,9.054-3.746c5-5.001,5-13.099,0-18.099l-41.079-41.079
			l116.83-93.466C512.713,223.175,513.617,215.128,509.205,209.598z"/>
	</g>
</g>
<g>
	<g>
		<path d="M384.004,128.002c-35.285,0-64,28.715-64,64c0,22.025,11.187,41.481,28.177,53.001l-66.253,22.938l-123.571-49.425
			c-3.379-1.34-7.185-1.186-10.479,0.435l-102.4,51.2c-6.323,3.166-8.892,10.846-5.726,17.178c2.253,4.489,6.767,7.074,11.46,7.074
			c1.929,0,3.874-0.435,5.709-1.348l97.263-48.623l122.658,49.067c2.876,1.152,6.042,1.212,8.934,0.213l118.75-41.122
			c0.367-0.128,0.614-0.41,0.964-0.563c24.695-8.875,42.513-32.307,42.513-60.023C448.004,156.717,419.29,128.002,384.004,128.002z
			 M384.004,230.402c-21.171,0-38.4-17.229-38.4-38.4s17.22-38.4,38.4-38.4c21.171,0,38.4,17.229,38.4,38.4
			S405.175,230.402,384.004,230.402z"/>
	</g>
</g>
</svg>