<?xml version="1.0" encoding="UTF-8"?>
<svg xmlns="http://www.w3.org/2000/svg" xmlns:xlink="http://www.w3.org/1999/xlink" width="25px" height="px" viewBox="0 0 25 25" version="1.1">
<g id="surface1">
<path style=" stroke:none;fill-rule:nonzero;fill:rgb(0%,0%,0%);fill-opacity:1;" d="M 24.863281 10.234375 C 24.648438 9.964844 24.253906 9.921875 23.984375 10.136719 L 17.90625 15 L 3.125 15 C 2.960938 15 2.800781 15.066406 2.683594 15.183594 L 0.183594 17.683594 C -0.0625 17.925781 -0.0625 18.324219 0.183594 18.566406 C 0.304688 18.6875 0.464844 18.75 0.625 18.75 C 0.785156 18.75 0.945312 18.6875 1.066406 18.566406 L 3.382812 16.25 L 17.867188 16.25 L 20.183594 18.566406 C 20.304688 18.6875 20.464844 18.75 20.625 18.75 C 20.785156 18.75 20.945312 18.6875 21.066406 18.566406 C 21.3125 18.324219 21.3125 17.925781 21.066406 17.683594 L 19.0625 15.675781 L 24.765625 11.113281 C 25.035156 10.898438 25.078125 10.503906 24.863281 10.234375 Z M 24.863281 10.234375 "/>
<path style=" stroke:none;fill-rule:nonzero;fill:rgb(0%,0%,0%);fill-opacity:1;" d="M 18.75 6.25 C 17.027344 6.25 15.625 7.652344 15.625 9.375 C 15.625 10.449219 16.171875 11.402344 17 11.964844 L 13.765625 13.082031 L 7.730469 10.667969 C 7.566406 10.605469 7.382812 10.613281 7.21875 10.691406 L 2.21875 13.191406 C 1.910156 13.34375 1.785156 13.71875 1.941406 14.03125 C 2.050781 14.25 2.269531 14.375 2.5 14.375 C 2.59375 14.375 2.691406 14.355469 2.78125 14.308594 L 7.527344 11.933594 L 13.515625 14.332031 C 13.65625 14.386719 13.8125 14.390625 13.953125 14.339844 L 19.753906 12.332031 C 19.769531 12.328125 19.78125 12.3125 19.800781 12.304688 C 21.003906 11.871094 21.875 10.726562 21.875 9.375 C 21.875 7.652344 20.472656 6.25 18.75 6.25 Z M 18.75 11.25 C 17.714844 11.25 16.875 10.410156 16.875 9.375 C 16.875 8.339844 17.714844 7.5 18.75 7.5 C 19.785156 7.5 20.625 8.339844 20.625 9.375 C 20.625 10.410156 19.785156 11.25 18.75 11.25 Z M 18.75 11.25 "/>
</g>
</svg>
