<?xml version="1.0" encoding="UTF-8"?>
<svg xmlns="http://www.w3.org/2000/svg" xmlns:xlink="http://www.w3.org/1999/xlink" width="25px" height="px" viewBox="0 0 25 25" version="1.1">
<g id="surface1">
<path style=" stroke:none;fill-rule:nonzero;fill:rgb(0%,0%,0%);fill-opacity:1;" d="M 18.585938 13.765625 C 18.675781 13.84375 18.789062 13.882812 18.898438 13.882812 C 19.035156 13.882812 19.167969 13.828125 19.261719 13.71875 C 19.335938 13.632812 21.066406 11.597656 19.753906 9.945312 C 19.027344 9.03125 19.566406 8.496094 19.683594 8.398438 C 19.886719 8.230469 19.917969 7.933594 19.753906 7.726562 C 19.589844 7.519531 19.289062 7.484375 19.082031 7.648438 C 18.578125 8.050781 17.914062 9.171875 19.003906 10.542969 C 19.820312 11.570312 18.550781 13.074219 18.535156 13.089844 C 18.363281 13.289062 18.386719 13.59375 18.585938 13.765625 Z M 18.585938 13.765625 "/>
<path style=" stroke:none;fill-rule:nonzero;fill:rgb(0%,0%,0%);fill-opacity:1;" d="M 22.738281 13.089844 C 22.5625 13.289062 22.585938 13.59375 22.785156 13.765625 C 22.875 13.84375 22.988281 13.882812 23.101562 13.882812 C 23.234375 13.882812 23.367188 13.828125 23.460938 13.71875 C 23.535156 13.632812 25.269531 11.597656 23.957031 9.945312 C 23.226562 9.03125 23.765625 8.496094 23.882812 8.398438 C 24.085938 8.230469 24.121094 7.933594 23.957031 7.726562 C 23.789062 7.519531 23.488281 7.484375 23.28125 7.648438 C 22.777344 8.050781 22.113281 9.171875 23.203125 10.542969 C 24.019531 11.570312 22.75 13.074219 22.738281 13.089844 Z M 22.738281 13.089844 "/>
<path style=" stroke:none;fill-rule:nonzero;fill:rgb(0%,0%,0%);fill-opacity:1;" d="M 5.539062 7.648438 C 5.332031 7.484375 5.03125 7.519531 4.867188 7.726562 C 4.703125 7.929688 4.734375 8.230469 4.9375 8.398438 C 5.054688 8.496094 5.59375 9.027344 4.867188 9.945312 C 3.554688 11.597656 5.285156 13.632812 5.359375 13.71875 C 5.453125 13.828125 5.585938 13.882812 5.722656 13.882812 C 5.832031 13.882812 5.945312 13.84375 6.035156 13.765625 C 6.234375 13.59375 6.257812 13.289062 6.085938 13.089844 C 6.070312 13.074219 4.800781 11.570312 5.617188 10.542969 C 6.707031 9.171875 6.042969 8.050781 5.539062 7.648438 Z M 5.539062 7.648438 "/>
<path style=" stroke:none;fill-rule:nonzero;fill:rgb(0%,0%,0%);fill-opacity:1;" d="M 1.160156 13.71875 C 1.253906 13.828125 1.386719 13.882812 1.523438 13.882812 C 1.632812 13.882812 1.746094 13.84375 1.835938 13.765625 C 2.035156 13.59375 2.058594 13.289062 1.882812 13.089844 C 1.871094 13.074219 0.601562 11.570312 1.417969 10.542969 C 2.507812 9.171875 1.84375 8.050781 1.339844 7.648438 C 1.132812 7.484375 0.832031 7.519531 0.664062 7.726562 C 0.5 7.933594 0.535156 8.230469 0.738281 8.398438 C 0.855469 8.496094 1.394531 9.027344 0.664062 9.945312 C -0.648438 11.597656 1.082031 13.632812 1.160156 13.71875 Z M 1.160156 13.71875 "/>
<path style=" stroke:none;fill-rule:nonzero;fill:rgb(0%,0%,0%);fill-opacity:1;" d="M 14.929688 5.667969 C 14.929688 4.3125 13.828125 3.210938 12.46875 3.210938 C 11.113281 3.210938 10.011719 4.3125 10.011719 5.667969 C 10.011719 7.027344 11.113281 8.128906 12.46875 8.128906 C 13.828125 8.128906 14.929688 7.027344 14.929688 5.667969 Z M 14.929688 5.667969 "/>
<path style=" stroke:none;fill-rule:nonzero;fill:rgb(0%,0%,0%);fill-opacity:1;" d="M 1.441406 19.53125 L 8.691406 19.53125 C 9.21875 19.53125 9.648438 19.101562 9.648438 18.570312 L 9.648438 16.753906 C 9.648438 16.742188 9.652344 16.726562 9.652344 16.714844 C 9.652344 15.921875 10.296875 15.277344 11.089844 15.277344 C 11.746094 15.277344 12.296875 15.722656 12.46875 16.328125 C 12.640625 15.722656 13.191406 15.277344 13.851562 15.277344 C 14.644531 15.277344 15.289062 15.921875 15.289062 16.714844 C 15.285156 16.726562 15.289062 16.742188 15.289062 16.753906 L 15.289062 18.570312 C 15.289062 19.101562 15.71875 19.53125 16.25 19.53125 L 23.558594 19.53125 C 24.355469 19.53125 25 18.898438 25 18.121094 C 25 17.34375 24.355469 16.714844 23.558594 16.714844 L 18.074219 16.714844 C 18.296875 16.4375 18.359375 16.050781 18.203125 15.710938 L 15.621094 10.128906 C 15.578125 10.035156 15.515625 9.957031 15.449219 9.882812 C 15.1875 8.949219 14.253906 8.519531 13.132812 8.519531 L 11.808594 8.519531 C 10.722656 8.519531 9.816406 8.925781 9.519531 9.792969 C 9.414062 9.882812 9.320312 9.992188 9.257812 10.128906 L 6.679688 15.710938 C 6.519531 16.050781 6.585938 16.4375 6.804688 16.714844 L 1.441406 16.714844 C 0.644531 16.714844 0 17.34375 0 18.121094 C 0 18.898438 0.644531 19.53125 1.441406 19.53125 Z M 15.53125 16.363281 L 15.53125 14.511719 L 16.460938 16.515625 C 16.492188 16.589844 16.539062 16.652344 16.589844 16.714844 L 15.5 16.714844 C 15.519531 16.597656 15.53125 16.480469 15.53125 16.363281 Z M 8.421875 16.515625 L 9.40625 14.382812 L 9.40625 16.363281 C 9.40625 16.480469 9.421875 16.597656 9.4375 16.714844 L 8.289062 16.714844 C 8.339844 16.652344 8.386719 16.589844 8.421875 16.515625 Z M 8.421875 16.515625 "/>
<path style=" stroke:none;fill-rule:nonzero;fill:rgb(0%,0%,0%);fill-opacity:1;" d="M 10.128906 16.71875 L 10.128906 20.828125 C 10.128906 21.355469 10.558594 21.789062 11.089844 21.789062 C 11.621094 21.789062 12.050781 21.359375 12.050781 20.828125 L 12.050781 16.71875 C 12.050781 16.1875 11.621094 15.757812 11.089844 15.757812 C 10.558594 15.757812 10.128906 16.1875 10.128906 16.71875 Z M 10.128906 16.71875 "/>
<path style=" stroke:none;fill-rule:nonzero;fill:rgb(0%,0%,0%);fill-opacity:1;" d="M 12.890625 16.71875 L 12.890625 20.828125 C 12.890625 21.355469 13.320312 21.789062 13.851562 21.789062 C 14.378906 21.789062 14.808594 21.359375 14.808594 20.828125 L 14.808594 16.71875 C 14.808594 16.1875 14.378906 15.757812 13.851562 15.757812 C 13.320312 15.757812 12.890625 16.1875 12.890625 16.71875 Z M 12.890625 16.71875 "/>
</g>
</svg>
