<?xml version="1.0" encoding="iso-8859-1"?>
<!-- Uploaded to: SVG Repo, www.svgrepo.com, Generator: SVG Repo Mixer Tools -->
<svg fill="#000000" version="1.1" id="Layer_1" xmlns="http://www.w3.org/2000/svg" xmlns:xlink="http://www.w3.org/1999/xlink" 
	 viewBox="0 0 512 512" xml:space="preserve">
<g>
	<g>
		<path d="M0,44.651v392.93h23.814v29.767h35.721v-29.767h75.412v29.767h35.721v-29.767h11.907v29.767h35.721v-29.767h75.412v29.767
			h35.721v-29.767h11.907v29.767h35.721v-29.767h75.409v29.767h35.721v-29.767H512V44.651H0z M158.759,401.861H35.721V80.372
			h123.038V401.861z M317.519,401.861H194.48V80.372h123.038V401.861z M476.279,401.861H353.241V80.372h123.038V401.861z"/>
	</g>
</g>
<g>
	<g>
		<rect x="232.781" y="116.093" width="47.628" height="35.721"/>
	</g>
</g>
<g>
	<g>
		<rect x="232.781" y="187.535" width="47.628" height="35.721"/>
	</g>
</g>
<g>
	<g>
		<rect x="391.537" y="116.093" width="47.628" height="35.721"/>
	</g>
</g>
<g>
	<g>
		<rect x="391.537" y="187.535" width="47.628" height="35.721"/>
	</g>
</g>
<g>
	<g>
		<rect x="74.026" y="116.093" width="47.628" height="35.721"/>
	</g>
</g>
<g>
	<g>
		<rect x="74.026" y="187.535" width="47.628" height="35.721"/>
	</g>
</g>
</svg>