<?xml version="1.0" encoding="UTF-8"?>
<svg xmlns="http://www.w3.org/2000/svg" xmlns:xlink="http://www.w3.org/1999/xlink" width="25px" height="px" viewBox="0 0 25 25" version="1.1">
<g id="surface1">
<path style=" stroke:none;fill-rule:nonzero;fill:rgb(0%,0%,0%);fill-opacity:1;" d="M 0 2.179688 L 0 21.367188 L 1.164062 21.367188 L 1.164062 22.820312 L 2.90625 22.820312 L 2.90625 21.367188 L 6.589844 21.367188 L 6.589844 22.820312 L 8.332031 22.820312 L 8.332031 21.367188 L 8.914062 21.367188 L 8.914062 22.820312 L 10.660156 22.820312 L 10.660156 21.367188 L 14.339844 21.367188 L 14.339844 22.820312 L 16.085938 22.820312 L 16.085938 21.367188 L 16.667969 21.367188 L 16.667969 22.820312 L 18.410156 22.820312 L 18.410156 21.367188 L 22.09375 21.367188 L 22.09375 22.820312 L 23.835938 22.820312 L 23.835938 21.367188 L 25 21.367188 L 25 2.179688 Z M 7.75 19.621094 L 1.746094 19.621094 L 1.746094 3.925781 L 7.75 3.925781 Z M 15.503906 19.621094 L 9.496094 19.621094 L 9.496094 3.925781 L 15.503906 3.925781 Z M 23.253906 19.621094 L 17.25 19.621094 L 17.25 3.925781 L 23.253906 3.925781 Z M 23.253906 19.621094 "/>
<path style=" stroke:none;fill-rule:nonzero;fill:rgb(0%,0%,0%);fill-opacity:1;" d="M 11.367188 5.667969 L 13.691406 5.667969 L 13.691406 7.414062 L 11.367188 7.414062 Z M 11.367188 5.667969 "/>
<path style=" stroke:none;fill-rule:nonzero;fill:rgb(0%,0%,0%);fill-opacity:1;" d="M 11.367188 9.15625 L 13.691406 9.15625 L 13.691406 10.902344 L 11.367188 10.902344 Z M 11.367188 9.15625 "/>
<path style=" stroke:none;fill-rule:nonzero;fill:rgb(0%,0%,0%);fill-opacity:1;" d="M 19.117188 5.667969 L 21.445312 5.667969 L 21.445312 7.414062 L 19.117188 7.414062 Z M 19.117188 5.667969 "/>
<path style=" stroke:none;fill-rule:nonzero;fill:rgb(0%,0%,0%);fill-opacity:1;" d="M 19.117188 9.15625 L 21.445312 9.15625 L 21.445312 10.902344 L 19.117188 10.902344 Z M 19.117188 9.15625 "/>
<path style=" stroke:none;fill-rule:nonzero;fill:rgb(0%,0%,0%);fill-opacity:1;" d="M 3.613281 5.667969 L 5.941406 5.667969 L 5.941406 7.414062 L 3.613281 7.414062 Z M 3.613281 5.667969 "/>
<path style=" stroke:none;fill-rule:nonzero;fill:rgb(0%,0%,0%);fill-opacity:1;" d="M 3.613281 9.15625 L 5.941406 9.15625 L 5.941406 10.902344 L 3.613281 10.902344 Z M 3.613281 9.15625 "/>
</g>
</svg>
