<?xml version="1.0" encoding="UTF-8"?>
<svg xmlns="http://www.w3.org/2000/svg" xmlns:xlink="http://www.w3.org/1999/xlink" width="25px" height="px" viewBox="0 0 25 25" version="1.1">
<g id="surface1">
<path style=" stroke:none;fill-rule:nonzero;fill:rgb(0%,0%,0%);fill-opacity:1;" d="M 17.640625 8.429688 C 17.121094 4.640625 13.761719 1.898438 9.945312 2.144531 C 6.125 2.394531 3.148438 5.550781 3.125 9.375 L 3.125 21.875 C 3.125 22.449219 3.589844 22.917969 4.167969 22.917969 C 4.742188 22.917969 5.207031 22.449219 5.207031 21.875 L 5.207031 9.375 C 5.203125 6.671875 7.269531 4.417969 9.960938 4.1875 C 12.652344 3.953125 15.074219 5.820312 15.535156 8.480469 C 13.117188 9.089844 11.433594 11.273438 11.457031 13.765625 L 11.457031 15.105469 C 11.457031 15.679688 11.925781 16.144531 12.5 16.144531 L 20.832031 16.144531 C 21.410156 16.144531 21.875 15.679688 21.875 15.105469 L 21.875 13.542969 C 21.871094 11.042969 20.09375 8.898438 17.640625 8.429688 Z M 17.640625 8.429688 "/>
<path style=" stroke:none;fill-rule:nonzero;fill:rgb(0%,0%,0%);fill-opacity:1;" d="M 16.667969 18.75 C 16.089844 18.75 15.625 19.214844 15.625 19.792969 L 15.625 21.875 C 15.625 22.449219 16.089844 22.917969 16.667969 22.917969 C 17.242188 22.917969 17.707031 22.449219 17.707031 21.875 L 17.707031 19.792969 C 17.707031 19.214844 17.242188 18.75 16.667969 18.75 Z M 16.667969 18.75 "/>
<path style=" stroke:none;fill-rule:nonzero;fill:rgb(0%,0%,0%);fill-opacity:1;" d="M 20.832031 18.75 C 20.257812 18.75 19.792969 19.214844 19.792969 19.792969 L 19.792969 21.875 C 19.792969 22.449219 20.257812 22.917969 20.832031 22.917969 C 21.410156 22.917969 21.875 22.449219 21.875 21.875 L 21.875 19.792969 C 21.875 19.214844 21.410156 18.75 20.832031 18.75 Z M 20.832031 18.75 "/>
<path style=" stroke:none;fill-rule:nonzero;fill:rgb(0%,0%,0%);fill-opacity:1;" d="M 12.5 18.75 C 11.925781 18.75 11.457031 19.214844 11.457031 19.792969 L 11.457031 21.875 C 11.457031 22.449219 11.925781 22.917969 12.5 22.917969 C 13.074219 22.917969 13.542969 22.449219 13.542969 21.875 L 13.542969 19.792969 C 13.542969 19.214844 13.074219 18.75 12.5 18.75 Z M 12.5 18.75 "/>
</g>
</svg>
